# xmcd
#
# Track frame offsets: 
#        150
#        12923
#        32648
#        51423
#        67022
#        80625
#        102974
#        123842
#        143028
#        167284
#
# Disc length: 2559 seconds
#
# Revision: 5
# Processed by: cddbd v1.5.2PL0 Copyright (c) Steve Scherf et al.
# Submitted via: ExactAudioCopyFreeDBPlugin 1.0
#
DISCID=7e09fd0a
DTITLE=Adult. - Anxiety Always
DYEAR=2003
DGENRE=Electronic
TTITLE0=The Cold Call
TTITLE1=Shake Your Head
TTITLE2=Glue Your Eyelids Together
TTITLE3=Blank Eyed, Nose Bleed
TTITLE4=Turn Your Back
TTITLE5=People, You Can Confuse
TTITLE6=Nothing Of The Kind
TTITLE7=Nervous (Wreck)
TTITLE8=We Know How To Have Fun
TTITLE9=Kick In The Shin
EXTD=YEAR: 2003
EXTT0=
EXTT1=
EXTT2=
EXTT3=
EXTT4=
EXTT5=
EXTT6=
EXTT7=
EXTT8=
EXTT9=
PLAYORDER=
